{
	"asset":{
		"generator":"Khronos glTF Blender I/O v4.3.47",
		"version":"2.0"
	},
	"extensionsUsed":[
		"KHR_materials_clearcoat",
		"KHR_materials_specular",
		"KHR_materials_ior"
	],
	"scene":0,
	"scenes":[
		{
			"name":"Scene",
			"nodes":[
				1
			]
		}
	],
	"nodes":[
		{
			"mesh":0,
			"name":"Fox.001",
			"translation":[
				0,
				0.08268070966005325,
				0
			]
		},
		{
			"children":[
				0
			],
			"name":"Low poly fox sculpture",
			"scale":[
				25.15644073486328,
				25.15644073486328,
				25.15644073486328
			]
		}
	],
	"materials":[
		{
			"doubleSided":true,
			"extensions":{
				"KHR_materials_clearcoat":{
					"clearcoatFactor":0.17499999701976776
				},
				"KHR_materials_specular":{
					"specularColorFactor":[
						1.4979252815246582,
						1.4979252815246582,
						1.4979252815246582
					]
				},
				"KHR_materials_ior":{
					"ior":1.4500000476837158
				}
			},
			"name":"Material.002",
			"pbrMetallicRoughness":{
				"metallicFactor":0,
				"roughnessFactor":0.09336099028587341
			}
		}
	],
	"meshes":[
		{
			"name":"Cube.002",
			"primitives":[
				{
					"attributes":{
						"POSITION":0,
						"NORMAL":1,
						"TEXCOORD_0":2,
						"TEXCOORD_1":3
					},
					"indices":4,
					"material":0
				}
			]
		}
	],
	"accessors":[
		{
			"bufferView":0,
			"componentType":5126,
			"count":1792,
			"max":[
				0.022438324987888336,
				0.07095909118652344,
				0.13502810895442963
			],
			"min":[
				-0.02168688364326954,
				-0.08269164711236954,
				-0.10551182180643082
			],
			"type":"VEC3"
		},
		{
			"bufferView":1,
			"componentType":5126,
			"count":1792,
			"type":"VEC3"
		},
		{
			"bufferView":2,
			"componentType":5126,
			"count":1792,
			"type":"VEC2"
		},
		{
			"bufferView":3,
			"componentType":5126,
			"count":1792,
			"type":"VEC2"
		},
		{
			"bufferView":4,
			"componentType":5123,
			"count":2658,
			"type":"SCALAR"
		}
	],
	"bufferViews":[
		{
			"buffer":0,
			"byteLength":21504,
			"byteOffset":0,
			"target":34962
		},
		{
			"buffer":0,
			"byteLength":21504,
			"byteOffset":21504,
			"target":34962
		},
		{
			"buffer":0,
			"byteLength":14336,
			"byteOffset":43008,
			"target":34962
		},
		{
			"buffer":0,
			"byteLength":14336,
			"byteOffset":57344,
			"target":34962
		},
		{
			"buffer":0,
			"byteLength":5316,
			"byteOffset":71680,
			"target":34963
		}
	],
	"buffers":[
		{
			"byteLength":76996,
			"uri":"robah_character.bin"
		}
	]
}
